<?xml version="1.0" standalone="no"?>
<!DOCTYPE svg PUBLIC "-//W3C//DTD SVG 20010904//EN"
 "http://www.w3.org/TR/2001/REC-SVG-20010904/DTD/svg10.dtd">
<svg version="1.0" xmlns="http://www.w3.org/2000/svg"
 width="512.000000pt" height="512.000000pt" viewBox="0 0 512.000000 512.000000"
 preserveAspectRatio="xMidYMid meet">

<g transform="translate(0.000000,512.000000) scale(0.100000,-0.100000)"
fill="#000000" stroke="none">
<path d="M1386 4820 c-168 -43 -289 -192 -330 -408 l-11 -63 -58 -24 c-106
-42 -166 -108 -203 -217 -61 -185 74 -400 272 -433 l41 -6 36 -137 c20 -75 39
-147 43 -158 5 -20 -3 -23 -108 -49 -297 -73 -631 -213 -793 -333 -275 -202
-347 -444 -199 -668 45 -67 150 -166 242 -227 158 -106 462 -229 737 -298 66
-17 121 -32 123 -34 7 -7 -59 -219 -70 -227 -7 -4 -25 -8 -40 -8 -90 0 -213
-87 -263 -187 -27 -51 -30 -68 -30 -148 0 -78 4 -97 28 -146 41 -84 126 -155
218 -182 12 -4 17 -23 22 -74 22 -266 156 -451 359 -494 255 -55 633 146 1040
553 l118 118 118 -118 c536 -536 989 -697 1242 -442 98 98 144 226 159 440 16
224 -22 508 -110 808 -17 57 -29 106 -27 107 2 2 57 17 123 34 191 48 409 126
560 201 421 207 580 465 451 735 -29 63 -54 96 -128 169 l-91 91 2 71 c3 100
-26 172 -98 245 -131 130 -327 134 -463 10 -52 -47 -54 -48 -88 -36 -19 7 -84
25 -145 40 -60 16 -113 31 -117 34 -4 3 4 44 18 91 142 480 155 914 36 1149
-92 183 -280 264 -497 216 -244 -54 -554 -262 -853 -574 l-92 -96 -93 96
c-262 273 -543 475 -767 550 -104 35 -240 47 -314 29z m299 -198 c90 -35 258
-141 374 -235 78 -63 381 -355 381 -368 0 -3 -46 -62 -101 -130 -56 -68 -146
-185 -201 -261 -55 -76 -104 -140 -109 -143 -5 -4 -91 -15 -191 -26 -156 -16
-238 -28 -455 -64 l-32 -6 -21 71 c-12 39 -31 110 -42 156 l-21 85 61 55 c138
124 161 304 58 449 -31 43 -119 114 -158 127 -19 7 4 107 43 185 51 106 123
146 254 140 60 -3 100 -12 160 -35z m2028 24 c66 -24 104 -62 141 -139 44 -95
58 -174 57 -331 -1 -222 -38 -437 -121 -716 -19 -63 -23 -70 -43 -65 -65 15
-295 48 -461 65 -103 11 -192 22 -196 25 -5 3 -53 67 -108 143 -55 76 -145
193 -201 261 -55 68 -101 127 -101 130 0 13 303 305 380 367 224 180 413 274
550 273 36 0 82 -6 103 -13z m-2537 -485 c107 -49 133 -184 50 -267 -65 -65
-167 -65 -232 0 -84 84 -59 217 50 267 52 23 80 23 132 0z m1481 -393 c49 -62
117 -149 150 -193 l60 -80 -307 0 -307 0 60 80 c98 130 240 305 247 305 4 0
47 -51 97 -112z m304 -454 c34 -5 42 -13 102 -107 126 -199 246 -406 331 -575
l37 -73 -69 -132 c-87 -164 -192 -346 -289 -499 l-75 -116 -76 -8 c-100 -9
-624 -9 -723 0 l-77 8 -65 101 c-126 199 -246 406 -331 575 l-37 73 69 132
c148 281 354 616 381 618 192 16 722 17 822 3z m-1061 -29 c0 -3 -35 -62 -78
-132 -43 -71 -111 -188 -151 -262 l-74 -134 -29 64 c-63 137 -159 392 -151
399 4 4 73 17 153 29 239 36 330 46 330 36z m1460 -5 c160 -19 350 -53 350
-62 0 -12 -118 -309 -157 -398 l-29 -64 -74 134 c-40 74 -109 192 -152 263
-43 70 -78 129 -78 132 0 8 48 6 140 -5z m-2065 -244 c31 -82 89 -223 130
-312 l73 -164 -72 -162 c-40 -90 -99 -230 -130 -313 -32 -82 -59 -151 -60
-152 -1 -1 -63 13 -137 32 -772 200 -1082 489 -847 788 111 141 433 294 833
397 82 21 151 38 151 37 1 -1 27 -69 59 -151z m2770 110 l110 -31 8 -65 c23
-185 159 -314 332 -314 90 0 143 16 200 60 31 23 53 33 65 29 29 -9 115 -108
141 -162 60 -122 6 -266 -139 -376 -164 -125 -411 -230 -746 -317 -83 -22
-151 -38 -152 -37 -1 1 -27 70 -59 152 -31 83 -90 223 -130 312 l-73 162 88
198 c48 109 108 251 131 315 l44 118 35 -6 c19 -4 85 -21 145 -38z m-2394
-918 c40 -73 108 -191 151 -262 43 -71 77 -131 74 -133 -9 -10 -464 54 -479
67 -4 3 9 49 28 101 44 113 146 359 151 359 1 0 35 -60 75 -132z m1976 -157
c35 -90 61 -167 56 -171 -15 -13 -469 -77 -479 -67 -3 3 25 53 61 111 36 59
105 177 152 263 l87 157 29 -64 c15 -36 58 -139 94 -229z m-2108 -371 c68 -12
204 -29 302 -40 99 -10 183 -21 188 -24 5 -3 48 -61 97 -128 49 -68 135 -181
193 -253 57 -71 109 -136 114 -143 8 -10 -21 -45 -119 -143 -309 -312 -589
-494 -779 -507 -128 -8 -208 33 -262 134 -30 57 -63 183 -63 242 0 26 7 33 54
56 66 32 119 89 155 165 21 46 26 70 26 136 0 71 -4 89 -33 148 -22 44 -49 80
-81 107 l-48 41 24 82 c13 45 28 99 34 120 9 35 12 37 42 32 18 -3 88 -14 156
-25z m2251 -40 c83 -279 120 -495 121 -717 1 -155 -13 -235 -58 -331 -38 -81
-85 -124 -157 -143 -65 -18 -171 -6 -261 30 -90 34 -258 140 -374 234 -74 60
-381 355 -381 366 0 4 45 62 101 131 56 68 146 187 202 263 55 75 104 140 109
143 4 3 90 14 191 25 100 11 245 30 322 43 77 13 145 24 152 25 7 1 21 -30 33
-69z m-983 -115 c-98 -130 -240 -305 -247 -305 -7 0 -149 175 -247 305 l-60
80 307 0 307 0 -60 -80z"/>
<path d="M2493 2980 c-222 -33 -385 -254 -353 -481 48 -342 474 -484 720 -239
288 289 38 779 -367 720z m192 -204 c86 -51 132 -143 122 -244 -9 -82 -32
-114 -97 -131 -142 -35 -303 46 -367 185 l-25 54 26 45 c70 118 224 159 341
91z"/>
</g>
</svg>
